<?xml version="1.0" encoding="utf-8"?>
<!-- Generator: Adobe Illustrator 19.2.1, SVG Export Plug-In . SVG Version: 6.00 Build 0)  -->
<svg version="1.1" id="Layer_1" xmlns="http://www.w3.org/2000/svg" xmlns:xlink="http://www.w3.org/1999/xlink" x="0px" y="0px"
	 width="35.7px" height="35.7px" viewBox="0 0 35.7 35.7" style="enable-background:new 0 0 35.7 35.7;" xml:space="preserve">
<style type="text/css">
	.st0{fill:#FFFFFF;}
</style>
<g>
	<path class="st0" d="M24.7,17.4l-6.1-6.1c-0.5-0.5-0.9-0.5-1.4,0L11,17.3c-0.2,0.2-0.4,0.4-0.4,0.7c0,0.2,0.1,0.4,0.2,0.5
		c0.2,0.2,0.6,0.5,1.2-0.2l0.6-0.6c1.7-1.7,3.4-3.4,5.1-5.1c1.8,1.8,3.6,3.6,5.4,5.4l0.3,0.3c0.1,0.1,0.1,0.1,0.2,0.2
		c0.1,0.1,0.3,0.2,0.5,0.2c0.2,0,0.4-0.1,0.5-0.2c0.3-0.3,0.3-0.7,0.1-1C24.8,17.5,24.7,17.4,24.7,17.4z"/>
	<path class="st0" d="M17.8,0C17.8,0,17.8,0,17.8,0C13.1,0,8.6,1.9,5.2,5.2C1.9,8.6,0,13.1,0,17.8c0,4.8,1.9,9.2,5.3,12.6
		c3.4,3.4,7.8,5.2,12.5,5.2c0,0,0,0,0.1,0c9.8,0,17.8-8,17.8-17.8C35.7,8,27.7,0,17.8,0z M17.8,34.1c-3.8,0-7.4-1.3-10.3-3.7
		c-0.4-0.3-0.8-0.7-1.2-1.1c-3.1-3.1-4.8-7.2-4.8-11.5c0-5,2.3-9.6,5.9-12.5C8.3,4.6,9.2,4,10.1,3.5C10.5,3.3,11,3,11.5,2.8
		c1.9-0.8,4.1-1.3,6.3-1.3c0,0,0,0,0,0c4.3,0,8.4,1.7,11.5,4.8c3.1,3.1,4.8,7.2,4.8,11.5C34.1,26.8,26.8,34.1,17.8,34.1
		C17.8,34.1,17.8,34.1,17.8,34.1z"/>
	<path class="st0" d="M24.7,22.4l-6.1-6.1c-0.5-0.5-0.9-0.5-1.4,0L11,22.4c-0.2,0.2-0.4,0.4-0.4,0.7c0,0.2,0.1,0.4,0.2,0.5
		c0.2,0.2,0.6,0.5,1.2-0.2l0.6-0.6c1.7-1.7,3.4-3.4,5.1-5.1c1.8,1.8,3.6,3.6,5.4,5.4l0.3,0.3c0.1,0.1,0.1,0.1,0.2,0.2
		c0.1,0.1,0.3,0.2,0.5,0.2c0.2,0,0.4-0.1,0.5-0.2c0.3-0.3,0.3-0.7,0.1-1C24.8,22.5,24.7,22.5,24.7,22.4z"/>
</g>
</svg>
