<?xml version="1.0" encoding="utf-8"?>
<!-- Generator: Adobe Illustrator 19.2.1, SVG Export Plug-In . SVG Version: 6.00 Build 0)  -->
<svg version="1.1" id="Layer_1" xmlns="http://www.w3.org/2000/svg" xmlns:xlink="http://www.w3.org/1999/xlink" x="0px" y="0px"
	 width="35.7px" height="35.7px" viewBox="0 0 35.7 35.7" style="enable-background:new 0 0 35.7 35.7;" xml:space="preserve">
<style type="text/css">
	.st0{fill:#FFFFFF;}
</style>
<g>
	<path class="st0" d="M24.7,18.3l-6.1,6.1c-0.5,0.5-0.9,0.5-1.4,0L11,18.4c-0.2-0.2-0.4-0.4-0.4-0.7c0-0.2,0.1-0.4,0.2-0.5
		c0.2-0.2,0.6-0.5,1.2,0.2l0.6,0.6c1.7,1.7,3.4,3.4,5.1,5.1c1.8-1.8,3.6-3.6,5.4-5.4l0.3-0.3c0.1-0.1,0.1-0.1,0.2-0.2
		c0.1-0.1,0.3-0.2,0.5-0.2c0.2,0,0.4,0.1,0.5,0.2c0.3,0.3,0.3,0.7,0.1,1C24.8,18.2,24.7,18.3,24.7,18.3z"/>
	<path class="st0" d="M35.7,17.8C35.7,8,27.7,0,17.8,0c0,0,0,0-0.1,0C13.1,0,8.6,1.8,5.3,5.2C1.9,8.6,0,13.1,0,17.8
		c0,4.8,1.9,9.2,5.2,12.6c3.4,3.4,7.8,5.2,12.6,5.2c0,0,0,0,0,0C27.7,35.7,35.7,27.6,35.7,17.8z M17.8,1.6c9,0,16.3,7.3,16.3,16.2
		c0,4.4-1.7,8.5-4.8,11.5c-3.1,3.1-7.2,4.8-11.5,4.8c0,0,0,0,0,0c-2.2,0-4.4-0.5-6.3-1.3c-0.5-0.2-1-0.4-1.4-0.7
		c-0.9-0.5-1.8-1.1-2.6-1.8c-3.6-3-5.9-7.5-5.9-12.5c0-4.3,1.7-8.4,4.8-11.5c0.4-0.4,0.8-0.7,1.2-1.1C10.4,2.9,14,1.6,17.8,1.6
		C17.8,1.6,17.8,1.6,17.8,1.6z"/>
	<path class="st0" d="M24.7,13.2l-6.1,6.1c-0.5,0.5-0.9,0.5-1.4,0L11,13.3c-0.2-0.2-0.4-0.4-0.4-0.7c0-0.2,0.1-0.4,0.2-0.5
		c0.2-0.2,0.6-0.5,1.2,0.2l0.6,0.6c1.7,1.7,3.4,3.4,5.1,5.1c1.8-1.8,3.6-3.6,5.4-5.4l0.3-0.3c0.1-0.1,0.1-0.1,0.2-0.2
		c0.1-0.1,0.3-0.2,0.5-0.2c0.2,0,0.4,0.1,0.5,0.2c0.3,0.3,0.3,0.7,0.1,1C24.8,13.1,24.7,13.2,24.7,13.2z"/>
</g>
</svg>
