<?xml version="1.0" encoding="utf-8"?>
<!-- Generator: Adobe Illustrator 19.2.1, SVG Export Plug-In . SVG Version: 6.00 Build 0)  -->
<svg version="1.1" id="Layer_1" xmlns="http://www.w3.org/2000/svg" xmlns:xlink="http://www.w3.org/1999/xlink" x="0px" y="0px"
	 width="24.8px" height="20.2px" viewBox="0 0 24.8 20.2" style="enable-background:new 0 0 24.8 20.2;" xml:space="preserve">
<style type="text/css">
	.st0{fill:#FFFFFF;}
</style>
<g>
	<path class="st0" d="M24.8,2.4c-0.9,0.4-1.9,0.7-2.9,0.8c1.1-0.6,1.9-1.6,2.2-2.8c-1,0.6-2.1,1-3.2,1.2C20,0.6,18.7,0,17.2,0
		c-2.8,0-5.1,2.3-5.1,5.1c0,0.4,0,0.8,0.1,1.2C8,6,4.2,4,1.7,0.9C1.3,1.7,1,2.6,1,3.5c0,1.8,0.9,3.3,2.3,4.2C2.5,7.7,1.7,7.5,1,7.1
		c0,0,0,0,0,0.1c0,2.5,1.8,4.5,4.1,5c-0.4,0.1-0.9,0.2-1.3,0.2c-0.3,0-0.6,0-1-0.1c0.6,2,2.5,3.5,4.8,3.5C5.8,17.1,3.6,18,1.2,18
		c-0.4,0-0.8,0-1.2-0.1c2.3,1.4,4.9,2.3,7.8,2.3c9.4,0,14.5-7.8,14.5-14.5c0-0.2,0-0.4,0-0.7C23.3,4.3,24.1,3.4,24.8,2.4z"/>
</g>
</svg>
