<?xml version="1.0" encoding="utf-8"?>
<!-- Generator: Adobe Illustrator 19.2.1, SVG Export Plug-In . SVG Version: 6.00 Build 0)  -->
<svg version="1.1" id="Isolation_Mode" xmlns="http://www.w3.org/2000/svg" xmlns:xlink="http://www.w3.org/1999/xlink" x="0px"
	 y="0px" width="230.5px" height="245.9px" viewBox="0 0 230.5 245.9" style="enable-background:new 0 0 230.5 245.9;"
	 xml:space="preserve">
<g>
	<path d="M204.9,229.5c-0.4-0.6-0.8-1.3-1.2-1.9c-7.7-11.2-15.4-22.5-23.1-33.7l-10.8-15.8L158,161C123.4,110.4,87.5,58.1,52.3,6.6
		c-2.8-4.1-6.9-6.2-11.8-6.2l-0.3,0c-2.6,0-5.4,0.1-9,0.1c-1.6,0-3.2,0-4.8,0c-1.6,0-3.2,0-4.8,0l-1.4,0c-0.8,0-1.6,0.1-2.2,0.1
		c-0.2,0-0.5,0-0.8,0.1L0,1.6L9.3,16c0.2,0.3,0.4,0.6,0.6,0.9c0.4,0.7,0.8,1.2,1.2,1.8l8.7,12.7c21.7,31.8,44.2,64.7,66.4,97.2
		c-20,29.1-40.1,58.6-59.7,87.2l-8.3,12.2c-0.4,0.6-0.8,1.2-1.1,1.8c-0.2,0.3-0.3,0.5-0.5,0.9l-9.7,15.3h18.1l1.7,0h1.1
		c1.8,0,3.7,0,5.5,0c1.8,0,3.6,0,5.4,0c3.3,0,5.9,0,8.3,0.1c0.2,0,0.3,0,0.4,0c5.2,0,9.4-2.2,12.3-6.5
		c16.6-24.3,33.5-48.9,49.9-72.8l1.5-2.1l0.1,0.1c16.8,24.6,34.1,50,51.2,75c2.8,4.2,6.7,6.3,11.5,6.3c0.2,0,0.4,0,0.6,0
		c1.4-0.1,2.9-0.1,4.8-0.1c1.2,0,2.3,0,3.5,0c1.2,0,2.4,0,3.6,0h3.5h7.3h18.2l-9.8-15.4C205.2,230.1,205,229.8,204.9,229.5z"/>
	<path d="M212.7,0.2c-0.3,0-0.6,0-0.8,0c-0.6,0-1.2-0.1-1.9-0.1l-1.2,0c-1.7,0-3.3,0-5,0c-1.6,0-3.3,0-4.9,0c-3.8,0-6.8,0-9.5-0.1
		l-0.2,0c-3.4,0-8.1,1.1-11.5,6.1c-3.4,5.1-6.9,10.2-10.4,15.2c-1.2,1.8-2.5,3.6-3.7,5.4l-2.9,4c-13.9,20.3-22.1,33.1-36.2,53.7
		c-3,4.4-3.3,9.6-0.8,13.6c3.1,4.7,6.2,9.3,9.4,14.1c0.9,1.3,1.8,2.6,2.7,3.9l8.2,12.2l8.3-12.1l68.2-100.3L230.5,1L212.7,0.2z"/>
</g>
</svg>
